<svg width="55" height="20" viewBox="0 0 55 20" fill="none" xmlns="http://www.w3.org/2000/svg">
<g clip-path="url(#clip0_23101_30)">
<path d="M27.394 6.17802L30.0095 6.01192C30.0665 6.44211 30.1819 6.76963 30.3557 6.99445C30.6396 7.35888 31.0441 7.54109 31.5694 7.54109C31.9614 7.54109 32.2638 7.44814 32.4767 7.26223C32.5742 7.18505 32.6534 7.08676 32.7085 6.97458C32.7636 6.8624 32.7932 6.73917 32.7951 6.61392C32.7934 6.49384 32.7659 6.37558 32.7143 6.26741C32.6628 6.15924 32.5885 6.0638 32.4966 5.98776C32.2976 5.80387 31.8284 5.62971 31.0889 5.46528C29.8832 5.19146 29.0233 4.82704 28.5093 4.37201C28.2591 4.16001 28.0594 3.89373 27.9249 3.59292C27.7904 3.29212 27.7246 2.96453 27.7323 2.63446C27.7342 2.16801 27.8727 1.7126 28.1302 1.32576C28.4244 0.889749 28.8399 0.55198 29.324 0.355303C29.8546 0.119736 30.5842 0.00195312 31.5127 0.00195312C32.6495 0.00195312 33.5163 0.216043 34.1132 0.644224C34.7101 1.07241 35.0653 1.75293 35.1787 2.6858L32.5871 2.83882C32.5208 2.43614 32.3762 2.14151 32.1534 1.95494C31.9305 1.76837 31.6255 1.67542 31.2381 1.67609C30.9188 1.67609 30.678 1.74555 30.5169 1.88246C30.4407 1.94169 30.3792 2.01796 30.3371 2.10529C30.295 2.19262 30.2734 2.28864 30.2741 2.38581C30.2765 2.46121 30.2957 2.5351 30.3301 2.60201C30.3646 2.66893 30.4134 2.72715 30.4731 2.77238C30.6024 2.89117 30.9098 3.0019 31.3953 3.10459C32.5971 3.36633 33.4593 3.63142 33.9819 3.89987C34.5045 4.16833 34.8826 4.50087 35.116 4.89751C35.3543 5.29987 35.4773 5.76135 35.4712 6.23037C35.4741 6.79828 35.3095 7.35417 34.9986 7.82699C34.6751 8.31998 34.2147 8.70523 33.6755 8.93435C33.1084 9.18603 32.3941 9.31186 31.5326 9.31186C30.0198 9.31186 28.9719 9.01724 28.3889 8.42799C27.8059 7.83874 27.4743 7.08875 27.394 6.17802ZM0.623768 9.16086V0.153964H5.20602C6.05562 0.153964 6.70492 0.227453 7.15393 0.37443C7.59621 0.517378 7.97859 0.805806 8.2403 1.19388C8.52515 1.62462 8.67016 2.13452 8.65515 2.65258C8.66669 3.10467 8.55665 3.55144 8.3368 3.94518C8.12583 4.31018 7.82707 4.61527 7.4683 4.83207C7.16668 5.00042 6.84118 5.12063 6.5033 5.18844C6.75611 5.26378 6.99698 5.37531 7.21859 5.51965C7.38329 5.65818 7.53152 5.81561 7.66031 5.98877C7.80519 6.16086 7.93345 6.34661 8.04332 6.54345L9.37442 9.16086H6.26752L4.79913 6.40554C4.61276 6.04917 4.44696 5.81763 4.30171 5.71092C4.10378 5.57212 3.86799 5.49927 3.6272 5.50253H3.38247V9.16086H0.623768ZM3.38247 3.80122H4.54445C4.79036 3.78264 5.0341 3.74153 5.27268 3.6784C5.45096 3.64379 5.60996 3.54287 5.71837 3.39552C5.83301 3.24668 5.89407 3.06274 5.89147 2.87405C5.89895 2.74879 5.87821 2.62344 5.83082 2.50747C5.78343 2.39149 5.71062 2.28793 5.61789 2.2046C5.43616 2.0489 5.09427 1.97105 4.5922 1.97105H3.38247V3.80122ZM0 16.8681L2.61545 16.703C2.67249 17.1332 2.78789 17.4607 2.96165 17.6855C3.2422 18.05 3.64776 18.2322 4.17835 18.2322C4.57032 18.2322 4.87275 18.1389 5.08565 17.9523C5.18314 17.8751 5.26234 17.7769 5.31742 17.6647C5.37251 17.5525 5.40209 17.4293 5.404 17.304C5.40225 17.184 5.37463 17.0657 5.32309 16.9576C5.27154 16.8494 5.1973 16.754 5.10554 16.6778C4.90657 16.494 4.43734 16.3201 3.69784 16.1564C2.49209 15.8812 1.63221 15.5168 1.11821 15.0631C0.868114 14.8509 0.668422 14.5844 0.533924 14.2834C0.399426 13.9825 0.333569 13.6548 0.341232 13.3245C0.343434 12.8581 0.481885 12.4028 0.73917 12.0158C1.03332 11.5798 1.44883 11.2421 1.93298 11.0454C2.46357 10.8098 3.19312 10.692 4.12164 10.692C5.25842 10.692 6.12526 10.9061 6.72217 11.3343C7.31907 11.7625 7.67423 12.443 7.78765 13.3759L5.20105 13.5299C5.13473 13.1272 4.99014 12.8323 4.7673 12.645C4.54445 12.4578 4.2397 12.3658 3.85303 12.3692C3.53402 12.3692 3.2936 12.4363 3.13177 12.5705C3.05565 12.6298 2.99411 12.706 2.952 12.7934C2.90988 12.8807 2.88833 12.9767 2.88903 13.0739C2.8913 13.1495 2.91036 13.2235 2.94481 13.2906C2.97925 13.3577 3.0282 13.4161 3.088 13.4615C3.21733 13.5802 3.52474 13.6906 4.01022 13.7927C5.21199 14.0544 6.07419 14.3195 6.59682 14.588C7.11944 14.8564 7.49748 15.1889 7.73094 15.5856C7.96905 15.988 8.09201 16.4494 8.0861 16.9184C8.08908 17.4864 7.92455 18.0423 7.61355 18.5151C7.28997 19.0081 6.82965 19.3933 6.2904 19.6224C5.72334 19.8741 5.00904 19.9999 4.14751 19.9999C2.63468 19.9999 1.58678 19.7053 1.0038 19.1161C0.420819 18.5268 0.0862199 17.7775 0 16.8681ZM16.216 16.1624L18.6255 16.8993C18.4922 17.5179 18.2315 18.101 17.8605 18.6107C17.5223 19.0611 17.0775 19.418 16.5672 19.6486C16.0512 19.8815 15.3946 19.9979 14.5974 19.9979C13.6304 19.9979 12.8405 19.856 12.2276 19.5721C11.6148 19.2882 11.0842 18.7879 10.6359 18.0711C10.1902 17.355 9.96768 16.4386 9.96835 15.3218C9.96835 13.8333 10.3597 12.6887 11.1423 11.888C11.9249 11.0873 13.0325 10.6873 14.465 10.688C15.5866 10.688 16.4677 10.9175 17.1083 11.3766C17.749 11.8356 18.2252 12.5403 18.5369 13.4907L16.1095 14.0373C16.0525 13.823 15.9626 13.6192 15.8429 13.4333C15.6959 13.2267 15.5026 13.0584 15.2788 12.942C15.0469 12.8251 14.7908 12.7661 14.5317 12.7699C13.9089 12.7699 13.4317 13.0235 13.1001 13.5309C12.8481 13.9074 12.7224 14.4984 12.7231 15.3037C12.7231 16.301 12.873 16.9849 13.1727 17.3554C13.4725 17.7258 13.8933 17.9107 14.4352 17.91C14.9605 17.91 15.3584 17.7607 15.629 17.4621C15.8996 17.1634 16.0953 16.7302 16.216 16.1624ZM20.7435 10.8441H23.4923V13.993H26.4967V10.8441H29.2574V19.8469H26.4967V16.2077H23.4923V19.8499H20.7435V10.8441ZM30.9685 15.351C30.9685 13.8826 31.3731 12.7383 32.1822 11.9182C32.9914 11.0981 34.1189 10.6887 35.5647 10.69C37.045 10.69 38.1858 11.0927 38.987 11.8981C39.7882 12.7034 40.1897 13.8299 40.1917 15.2775C40.1917 16.3305 40.0166 17.1936 39.6665 17.8668C39.3257 18.531 38.7977 19.078 38.1493 19.4382C37.4861 19.8127 36.6617 19.9999 35.6761 19.9999C34.6733 19.9999 33.8443 19.8382 33.189 19.5147C32.5158 19.1771 31.9587 18.6421 31.5903 17.9795C31.1751 17.2802 30.9679 16.404 30.9685 15.351ZM33.7173 15.3641C33.7173 16.2735 33.8831 16.9265 34.2147 17.3231C34.5463 17.7198 35.0006 17.9181 35.5776 17.9181C36.1686 17.9181 36.6259 17.7238 36.9495 17.3352C37.2732 16.9466 37.435 16.2487 37.435 15.2413C37.435 14.3937 37.2659 13.7742 36.9276 13.3829C36.5894 12.9917 36.1311 12.7964 35.5528 12.797C35.3013 12.7879 35.0511 12.8364 34.8207 12.9389C34.5904 13.0414 34.386 13.1953 34.2227 13.389C33.8864 13.7917 33.7179 14.45 33.7173 15.3641Z" fill="white"/>
<path d="M39.0258 15.3509C39.0258 13.8825 39.4303 12.7382 40.2395 11.9181C41.0486 11.098 42.1761 10.6886 43.6219 10.6899C45.1036 10.6899 46.2447 11.0926 47.0452 11.898C47.8457 12.7033 48.246 13.8302 48.246 15.2785C48.246 16.3315 48.0712 17.1945 47.7217 17.8677C47.3806 18.5317 46.8527 19.0786 46.2046 19.4391C45.5413 19.8136 44.7169 20.0009 43.7314 20.0009C42.7279 20.0009 41.8989 19.8391 41.2443 19.5156C40.571 19.1778 40.0136 18.6429 39.6446 17.9804C39.232 17.2804 39.0258 16.4039 39.0258 15.3509ZM41.7755 15.364C41.7755 16.2734 41.9413 16.9264 42.2729 17.3231C42.6045 17.7197 43.0595 17.9183 43.6379 17.919C44.2288 17.919 44.6861 17.7247 45.0097 17.3361C45.3334 16.9476 45.4952 16.2496 45.4952 15.2422C45.4952 14.3946 45.3264 13.7751 44.9889 13.3839C44.6513 12.9926 44.193 12.7973 43.614 12.798C43.3621 12.7882 43.1113 12.8362 42.8804 12.9386C42.6495 13.0409 42.4445 13.1949 42.2809 13.3889C41.9433 13.7916 41.7748 14.4499 41.7755 15.364Z" fill="white"/>
<path d="M47.9595 10.844H50.7092V17.6301H55V19.8449H47.9595V10.844Z" fill="white"/>
</g>
<defs>
<clipPath id="clip0_23101_30">
<rect width="55" height="20" fill="white"/>
</clipPath>
</defs>
</svg>
